<?xml version="1.0" encoding="UTF-8"?>
<svg id="Camada_1" xmlns="http://www.w3.org/2000/svg" xmlns:i="http://ns.adobe.com/AdobeIllustrator/10.0/" version="1.1" viewBox="0 0 303.52 133.54">
  <!-- Generator: Adobe Illustrator 29.8.1, SVG Export Plug-In . SVG Version: 2.1.1 Build 2)  -->
  <path d="M290.78,13.26l-.06-.05H8.8l-.06.05-6.67,6.22v104.75l.06.06,6.66,6.66h281.93l6.66-6.66.06-.06V19.49l-6.67-6.22ZM297.05,124.08l-6.49,6.49H8.96l-6.49-6.49V19.66l6.49-6.06h281.61l6.49,6.06v104.42Z" style="fill: #e8ed20;"/>
  <path d="M292.19,117.32l-6.27,5.96H14.08l-6.27-5.96V21.49l6.26-5.56h271.84l6.26,5.56v95.83Z" style="fill: #5cbf06; opacity: .15;"/>
  <polygon points="252.83 128.72 249.49 125.38 249.47 125.38 249.47 125.38 151.25 125.38 151.09 125.38 11.53 125.38 5.25 119.09 5.25 73.3 4.87 73.3 4.87 119.25 4.93 119.31 11.38 125.75 151.09 125.75 151.25 125.75 249.32 125.75 251.92 128.35 149.16 128.35 149 128.35 9.44 128.35 6.13 125.04 5.6 125.04 9.28 128.73 149 128.73 149.16 128.73 252.3 128.73 252.83 128.72" style="fill: #e8ed20;"/>
  <polygon points="288.04 129.88 12.3 129.88 10.3 127.24 290.04 127.24 288.04 129.88" style="fill: #5cbf06; opacity: .15;"/>
  <polygon points="150.52 3.48 150.5 3.48 150.5 3.47 68.89 3.47 68.89 3.85 150.35 3.85 155.56 8.95 52.8 8.95 52.64 8.95 11.86 8.95 11.86 9.33 52.64 9.33 52.8 9.33 155.94 9.33 156.47 9.33 150.52 3.48" style="fill: #e8ed20;"/>
  <rect x="11.86" y="3.06" style="fill: #f99d0b;"/>
  <polygon points="292.19 126.38 286.98 126.38 286.98 125.96 292.02 125.96 294.62 123.44 294.62 94.46 295.04 94.46 295.04 123.61 292.19 126.38" style="fill: #f99d0b;"/>
  <g>
    <polygon points="172.21 2.41 179.39 9.43 179.57 9.25 172.38 2.23 172.21 2.41" style="fill: #f99d0b;"/>
    <polygon points="175.18 2.32 182.36 9.34 182.54 9.16 175.35 2.14 175.18 2.32" style="fill: #f99d0b;"/>
    <polygon points="178.15 2.32 185.34 9.34 185.51 9.16 178.33 2.14 178.15 2.32" style="fill: #f99d0b;"/>
    <polygon points="181.13 2.32 188.31 9.34 188.48 9.16 181.3 2.14 181.13 2.32" style="fill: #f99d0b;"/>
    <polygon points="184.1 2.32 191.28 9.34 191.46 9.16 184.27 2.14 184.1 2.32" style="fill: #f99d0b;"/>
    <polygon points="187.07 2.32 194.25 9.34 194.43 9.16 187.24 2.14 187.07 2.32" style="fill: #f99d0b;"/>
    <polygon points="190.04 2.32 197.23 9.34 197.4 9.16 190.22 2.14 190.04 2.32" style="fill: #f99d0b;"/>
    <polygon points="193.02 2.32 200.2 9.34 200.37 9.16 193.19 2.14 193.02 2.32" style="fill: #f99d0b;"/>
    <polygon points="195.99 2.32 203.17 9.34 203.35 9.16 196.16 2.14 195.99 2.32" style="fill: #f99d0b;"/>
    <polygon points="198.96 2.32 206.14 9.34 206.32 9.16 199.13 2.14 198.96 2.32" style="fill: #f99d0b;"/>
    <polygon points="201.93 2.32 209.12 9.34 209.29 9.16 202.11 2.14 201.93 2.32" style="fill: #f99d0b;"/>
    <polygon points="204.91 2.32 212.09 9.34 212.26 9.16 205.08 2.14 204.91 2.32" style="fill: #f99d0b;"/>
    <polygon points="207.88 2.32 215.06 9.34 215.24 9.16 208.05 2.14 207.88 2.32" style="fill: #f99d0b;"/>
    <polygon points="210.85 2.32 218.03 9.34 218.21 9.16 211.02 2.14 210.85 2.32" style="fill: #f99d0b;"/>
    <polygon points="213.82 2.32 221.01 9.34 221.18 9.16 214 2.14 213.82 2.32" style="fill: #f99d0b;"/>
    <polygon points="216.8 2.32 223.98 9.34 224.15 9.16 216.97 2.14 216.8 2.32" style="fill: #f99d0b;"/>
    <polygon points="219.77 2.32 226.95 9.34 227.12 9.16 219.94 2.14 219.77 2.32" style="fill: #f99d0b;"/>
    <polygon points="222.74 2.32 229.92 9.34 230.1 9.16 222.91 2.14 222.74 2.32" style="fill: #f99d0b;"/>
    <polygon points="225.71 2.32 232.9 9.34 233.07 9.16 225.89 2.14 225.71 2.32" style="fill: #f99d0b;"/>
    <polygon points="228.68 2.32 235.87 9.34 236.04 9.16 228.86 2.14 228.68 2.32" style="fill: #f99d0b;"/>
    <polygon points="231.66 2.32 238.84 9.34 239.01 9.16 231.83 2.14 231.66 2.32" style="fill: #f99d0b;"/>
    <polygon points="234.63 2.32 241.81 9.34 241.99 9.16 234.8 2.14 234.63 2.32" style="fill: #f99d0b;"/>
    <polygon points="237.6 2.32 244.79 9.34 244.96 9.16 237.78 2.14 237.6 2.32" style="fill: #f99d0b;"/>
    <polygon points="240.57 2.32 247.76 9.34 247.93 9.16 240.75 2.14 240.57 2.32" style="fill: #f99d0b;"/>
    <polygon points="243.55 2.32 250.73 9.34 250.9 9.16 243.72 2.14 243.55 2.32" style="fill: #f99d0b;"/>
    <polygon points="246.52 2.32 253.7 9.34 253.88 9.16 246.69 2.14 246.52 2.32" style="fill: #f99d0b;"/>
    <polygon points="249.49 2.32 256.68 9.34 256.85 9.16 249.67 2.14 249.49 2.32" style="fill: #f99d0b;"/>
    <polygon points="252.46 2.32 259.65 9.34 259.82 9.16 252.64 2.14 252.46 2.32" style="fill: #f99d0b;"/>
    <polygon points="255.44 2.32 262.62 9.34 262.79 9.16 255.61 2.14 255.44 2.32" style="fill: #f99d0b;"/>
    <polygon points="261.56 2.14 261.38 2.32 264.5 5.37 264.86 5.37 261.56 2.14" style="fill: #f99d0b;"/>
    <polygon points="258.41 2.32 264.08 7.86 264.43 7.86 258.58 2.14 258.41 2.32" style="fill: #f99d0b;"/>
    <polygon points="170.31 6.2 173.61 9.43 173.79 9.25 170.67 6.2 170.31 6.2" style="fill: #f99d0b;"/>
    <polygon points="170.73 3.71 176.58 9.43 176.76 9.25 171.09 3.71 170.73 3.71" style="fill: #f99d0b;"/>
  </g>
  <g>
    <polygon points="298.84 42.58 301.56 45.41 301.59 45.34 298.88 42.5 298.84 42.58" style="fill: #f99d0b;"/>
    <polygon points="300.57 42.42 300.54 42.49 301.72 43.72 301.82 43.72 300.57 42.42" style="fill: #f99d0b;"/>
    <polygon points="299.68 42.52 301.83 44.75 301.93 44.75 299.71 42.44 299.68 42.52" style="fill: #f99d0b;"/>
    <polygon points="298.64 44.15 299.89 45.46 299.93 45.38 298.75 44.15 298.64 44.15" style="fill: #f99d0b;"/>
    <polygon points="298.54 43.12 300.75 45.43 300.78 45.36 298.64 43.12 298.54 43.12" style="fill: #f99d0b;"/>
  </g>
  <line x1="301.64" y1="42.15" x2="298.38" y2="37.2" style="fill: none; stroke: #f99d0b; stroke-miterlimit: 10; stroke-width: .25px;"/>
  <rect x="284.81" y="35.92" width="2.09" height="26.31" style="fill: #f99d0b;"/>
  <rect x="284.81" y="62.23" width="2.09" height="15.66" style="fill: #f99d0b; opacity: .15;"/>
  <polygon points="283.03 31.46 283.03 57.22 283.03 57.77 283.03 83.31 283.03 83.53 283.03 91.65 283.03 109.63 283.03 117.97 283.41 117.97 283.41 109.63 283.41 91.65 283.41 83.53 283.41 83.31 283.41 57.77 283.41 57.22 283.41 31.46 283.03 31.46" style="fill: #f99d0b;"/>
  <rect x="284.81" y="33.3" width="2.09" height="1.98" style="fill: #f99d0b;"/>
  <rect x="284.81" y="31.46" width="2.09" height="1.4" style="fill: #f99d0b;"/>
  <path d="M285.8,30.75l-.06-.03-1.99-1.13v-2.38s2.14-1.2,2.14-1.2l2,1.2.02,2.4-2.11,1.14ZM284,29.44l1.8,1.03,1.85-1-.02-2.11-1.76-1.06-1.89,1.06v2.08Z" style="fill: #f99d0b;"/>
  <polygon points="288.32 82.1 288.32 83.31 288.32 83.53 288.32 91.65 288.32 109.63 288.32 117.97 288.7 117.97 288.7 109.63 288.7 91.65 288.7 83.53 288.7 83.31 288.7 82.1 288.32 82.1" style="fill: #f99d0b;"/>
  <rect x="288.32" y="80.4" width=".38" height=".69" style="fill: #f99d0b;"/>
  <g>
    <polygon points="284.8 114.73 286.75 116.5 286.9 116.29 284.94 114.52 284.8 114.73" style="fill: #f99d0b;"/>
    <polygon points="284.8 111.64 286.75 113.41 286.9 113.2 284.94 111.43 284.8 111.64" style="fill: #f99d0b;"/>
    <polygon points="284.8 108.55 286.75 110.32 286.9 110.11 284.94 108.34 284.8 108.55" style="fill: #f99d0b;"/>
    <polygon points="284.8 105.46 286.75 107.23 286.9 107.03 284.94 105.25 284.8 105.46" style="fill: #f99d0b;"/>
    <polygon points="284.8 102.37 286.75 104.15 286.9 103.94 284.94 102.16 284.8 102.37" style="fill: #f99d0b;"/>
    <polygon points="284.8 99.28 286.75 101.06 286.9 100.85 284.94 99.07 284.8 99.28" style="fill: #f99d0b;"/>
    <polygon points="284.8 96.19 286.75 97.97 286.9 97.76 284.94 95.99 284.8 96.19" style="fill: #f99d0b;"/>
    <polygon points="284.8 93.11 286.75 94.88 286.9 94.67 284.94 92.9 284.8 93.11" style="fill: #f99d0b;"/>
    <polygon points="284.8 90.02 286.75 91.79 286.9 91.58 284.94 89.81 284.8 90.02" style="fill: #f99d0b;"/>
    <polygon points="284.8 86.93 286.75 88.7 286.9 88.49 284.94 86.72 284.8 86.93" style="fill: #f99d0b;"/>
    <polygon points="284.8 83.84 286.75 85.61 286.9 85.41 284.94 83.63 284.8 83.84" style="fill: #f99d0b;"/>
    <polygon points="284.8 80.75 286.75 82.52 286.9 82.32 284.94 80.54 284.8 80.75" style="fill: #f99d0b;"/>
    <polygon points="284.8 77.66 286.75 79.44 286.9 79.23 284.94 77.45 284.8 77.66" style="fill: #f99d0b;"/>
    <polygon points="284.8 74.57 286.75 76.35 286.9 76.14 284.94 74.37 284.8 74.57" style="fill: #f99d0b;"/>
    <polygon points="284.8 71.49 286.75 73.26 286.9 73.05 284.94 71.28 284.8 71.49" style="fill: #f99d0b;"/>
    <polygon points="284.8 68.4 286.75 70.17 286.9 69.96 284.94 68.19 284.8 68.4" style="fill: #f99d0b;"/>
    <polygon points="284.8 65.31 286.75 67.08 286.9 66.87 284.94 65.1 284.8 65.31" style="fill: #f99d0b;"/>
    <polygon points="286.9 63.78 284.94 62.01 284.8 62.22 286.75 63.99 286.9 63.78" style="fill: #f99d0b;"/>
  </g>
</svg>