<?xml version="1.0" encoding="UTF-8"?>
<svg id="Camada_1" xmlns="http://www.w3.org/2000/svg" xmlns:i="http://ns.adobe.com/AdobeIllustrator/10.0/" version="1.1" viewBox="0 0 560.95 313.38">
  <!-- Generator: Adobe Illustrator 29.8.1, SVG Export Plug-In . SVG Version: 2.1.1 Build 2)  -->
  <path d="M558.51,15.49l-12.16-12.38-.05-.05H14.64L2.48,15.44l-.05.05v33.92h4.62v214.79H2.43v34.36l12.6,12.16.05.05h530.77l12.6-12.16.05-.05v-34.36h-4.62V49.41h4.62V15.49ZM558.18,49.08h-4.62v215.45h4.62v33.89l-12.45,12.01H15.22l-12.45-12.01v-33.89h4.62V49.08H2.76V15.62L14.78,3.39h531.38l12.01,12.23v33.46Z" style="fill: #f7a623;"/>
  <rect x="549.44" y="67.29" width="2.23" height=".45" style="fill: #f7a623;"/>
  <rect x="549.44" y="73.23" width="2.23" height=".45" style="fill: #f7a623;"/>
  <rect x="549.44" y="79.18" width="2.23" height=".45" style="fill: #f7a623;"/>
  <rect x="549.44" y="85.12" width="2.23" height=".45" style="fill: #f7a623;"/>
  <rect x="549.44" y="91.07" width="2.23" height=".45" style="fill: #f7a623;"/>
  <rect x="549.44" y="97.01" width="2.23" height=".45" style="fill: #f7a623;"/>
  <rect x="549.44" y="102.96" width="2.23" height=".45" style="fill: #f7a623;"/>
  <rect x="549.44" y="108.9" width="2.23" height=".45" style="fill: #f7a623;"/>
  <rect x="549.44" y="114.85" width="2.23" height=".45" style="fill: #f7a623;"/>
  <rect x="549.44" y="120.79" width="2.23" height=".45" style="fill: #f7a623;"/>
  <rect x="549.44" y="126.74" width="2.23" height=".45" style="fill: #f7a623;"/>
  <rect x="549.44" y="132.68" width="2.23" height=".45" style="fill: #f7a623;"/>
  <rect x="549.44" y="138.63" width="2.23" height=".45" style="fill: #f7a623;"/>
  <rect x="549.44" y="144.57" width="2.23" height=".45" style="fill: #f7a623;"/>
  <rect x="549.44" y="150.52" width="2.23" height=".45" style="fill: #f7a623;"/>
  <rect x="549.44" y="156.46" width="2.23" height=".45" style="fill: #f7a623;"/>
  <rect x="549.44" y="162.41" width="2.23" height=".45" style="fill: #f7a623;"/>
  <rect x="549.44" y="168.35" width="2.23" height=".45" style="fill: #f7a623;"/>
  <rect x="549.44" y="174.3" width="2.23" height=".45" style="fill: #f7a623;"/>
  <rect x="549.44" y="180.24" width="2.23" height=".45" style="fill: #f7a623;"/>
  <rect x="549.44" y="186.19" width="2.23" height=".45" style="fill: #f7a623;"/>
  <rect x="549.44" y="192.13" width="2.23" height=".45" style="fill: #f7a623;"/>
  <rect x="549.44" y="198.08" width="2.23" height=".45" style="fill: #f7a623;"/>
  <rect x="549.44" y="204.02" width="2.23" height=".45" style="fill: #f7a623;"/>
  <rect x="549.44" y="209.97" width="2.23" height=".45" style="fill: #f7a623;"/>
  <rect x="549.44" y="215.91" width="2.23" height=".45" style="fill: #f7a623;"/>
  <rect x="549.44" y="221.86" width="2.23" height=".45" style="fill: #f7a623;"/>
  <rect x="549.44" y="227.8" width="2.23" height=".45" style="fill: #f7a623;"/>
  <rect x="549.44" y="233.75" width="2.23" height=".45" style="fill: #f7a623;"/>
  <rect x="549.44" y="239.69" width="2.23" height=".45" style="fill: #f7a623;"/>
  <rect x="549.44" y="245.64" width="2.23" height=".45" style="fill: #f7a623;"/>
  <rect x="555.88" y="67.29" width="2.23" height=".45" style="fill: #f7a623;"/>
  <rect x="555.88" y="73.23" width="2.23" height=".45" style="fill: #f7a623;"/>
  <rect x="555.88" y="79.18" width="2.23" height=".45" style="fill: #f7a623;"/>
  <rect x="555.88" y="85.12" width="2.23" height=".45" style="fill: #f7a623;"/>
  <rect x="555.88" y="91.07" width="2.23" height=".45" style="fill: #f7a623;"/>
  <rect x="555.88" y="97.01" width="2.23" height=".45" style="fill: #f7a623;"/>
  <rect x="555.88" y="102.96" width="2.23" height=".45" style="fill: #f7a623;"/>
  <rect x="555.88" y="108.9" width="2.23" height=".45" style="fill: #f7a623;"/>
  <rect x="555.88" y="114.85" width="2.23" height=".45" style="fill: #f7a623;"/>
  <rect x="555.88" y="120.79" width="2.23" height=".45" style="fill: #f7a623;"/>
  <rect x="555.88" y="126.74" width="2.23" height=".45" style="fill: #f7a623;"/>
  <rect x="555.88" y="132.68" width="2.23" height=".45" style="fill: #f7a623;"/>
  <rect x="555.88" y="138.63" width="2.23" height=".45" style="fill: #f7a623;"/>
  <rect x="555.88" y="144.57" width="2.23" height=".45" style="fill: #f7a623;"/>
  <rect x="555.88" y="150.52" width="2.23" height=".45" style="fill: #f7a623;"/>
  <rect x="555.88" y="156.46" width="2.23" height=".45" style="fill: #f7a623;"/>
  <rect x="555.88" y="162.41" width="2.23" height=".45" style="fill: #f7a623;"/>
  <rect x="555.88" y="168.35" width="2.23" height=".45" style="fill: #f7a623;"/>
  <rect x="555.88" y="174.3" width="2.23" height=".45" style="fill: #f7a623;"/>
  <rect x="555.88" y="180.24" width="2.23" height=".45" style="fill: #f7a623;"/>
  <rect x="555.88" y="186.19" width="2.23" height=".45" style="fill: #f7a623;"/>
  <rect x="555.88" y="192.13" width="2.23" height=".45" style="fill: #f7a623;"/>
  <rect x="555.88" y="198.08" width="2.23" height=".45" style="fill: #f7a623;"/>
  <rect x="555.88" y="204.02" width="2.23" height=".45" style="fill: #f7a623;"/>
  <rect x="555.88" y="209.97" width="2.23" height=".45" style="fill: #f7a623;"/>
  <rect x="555.88" y="215.91" width="2.23" height=".45" style="fill: #f7a623;"/>
  <rect x="555.88" y="221.86" width="2.23" height=".45" style="fill: #f7a623;"/>
  <rect x="555.88" y="227.8" width="2.23" height=".45" style="fill: #f7a623;"/>
  <rect x="555.88" y="233.75" width="2.23" height=".45" style="fill: #f7a623;"/>
  <rect x="555.88" y="239.69" width="2.23" height=".45" style="fill: #f7a623;"/>
  <rect x="555.88" y="245.64" width="2.23" height=".45" style="fill: #f7a623;"/>
  <rect x="3.01" y="67.29" width="2.23" height=".45" style="fill: #f7a623;"/>
  <rect x="3.01" y="73.23" width="2.23" height=".45" style="fill: #f7a623;"/>
  <rect x="3.01" y="79.18" width="2.23" height=".45" style="fill: #f7a623;"/>
  <rect x="3.01" y="85.12" width="2.23" height=".45" style="fill: #f7a623;"/>
  <rect x="3.01" y="91.07" width="2.23" height=".45" style="fill: #f7a623;"/>
  <rect x="3.01" y="97.01" width="2.23" height=".45" style="fill: #f7a623;"/>
  <rect x="3.01" y="102.96" width="2.23" height=".45" style="fill: #f7a623;"/>
  <rect x="3.01" y="108.9" width="2.23" height=".45" style="fill: #f7a623;"/>
  <rect x="3.01" y="114.85" width="2.23" height=".45" style="fill: #f7a623;"/>
  <rect x="3.01" y="120.79" width="2.23" height=".45" style="fill: #f7a623;"/>
  <rect x="3.01" y="126.74" width="2.23" height=".45" style="fill: #f7a623;"/>
  <rect x="3.01" y="132.68" width="2.23" height=".45" style="fill: #f7a623;"/>
  <rect x="3.01" y="138.63" width="2.23" height=".45" style="fill: #f7a623;"/>
  <rect x="3.01" y="144.57" width="2.23" height=".45" style="fill: #f7a623;"/>
  <rect x="3.01" y="150.52" width="2.23" height=".45" style="fill: #f7a623;"/>
  <rect x="3.01" y="156.46" width="2.23" height=".45" style="fill: #f7a623;"/>
  <rect x="3.01" y="162.41" width="2.23" height=".45" style="fill: #f7a623;"/>
  <rect x="3.01" y="168.35" width="2.23" height=".45" style="fill: #f7a623;"/>
  <rect x="3.01" y="174.3" width="2.23" height=".45" style="fill: #f7a623;"/>
  <rect x="3.01" y="180.24" width="2.23" height=".45" style="fill: #f7a623;"/>
  <rect x="3.01" y="186.19" width="2.23" height=".45" style="fill: #f7a623;"/>
  <rect x="3.01" y="192.13" width="2.23" height=".45" style="fill: #f7a623;"/>
  <rect x="3.01" y="198.08" width="2.23" height=".45" style="fill: #f7a623;"/>
  <rect x="3.01" y="204.02" width="2.23" height=".45" style="fill: #f7a623;"/>
  <rect x="3.01" y="209.97" width="2.23" height=".45" style="fill: #f7a623;"/>
  <rect x="3.01" y="215.91" width="2.23" height=".45" style="fill: #f7a623;"/>
  <rect x="3.01" y="221.86" width="2.23" height=".45" style="fill: #f7a623;"/>
  <rect x="3.01" y="227.8" width="2.23" height=".45" style="fill: #f7a623;"/>
  <rect x="3.01" y="233.75" width="2.23" height=".45" style="fill: #f7a623;"/>
  <rect x="3.01" y="239.69" width="2.23" height=".45" style="fill: #f7a623;"/>
  <rect x="3.01" y="245.64" width="2.23" height=".45" style="fill: #f7a623;"/>
  <rect x="9.45" y="67.29" width="2.23" height=".45" style="fill: #f7a623;"/>
  <rect x="9.45" y="73.23" width="2.23" height=".45" style="fill: #f7a623;"/>
  <rect x="9.45" y="79.18" width="2.23" height=".45" style="fill: #f7a623;"/>
  <rect x="9.45" y="85.12" width="2.23" height=".45" style="fill: #f7a623;"/>
  <rect x="9.45" y="91.07" width="2.23" height=".45" style="fill: #f7a623;"/>
  <rect x="9.45" y="97.01" width="2.23" height=".45" style="fill: #f7a623;"/>
  <rect x="9.45" y="102.96" width="2.23" height=".45" style="fill: #f7a623;"/>
  <rect x="9.45" y="108.9" width="2.23" height=".45" style="fill: #f7a623;"/>
  <rect x="9.45" y="114.85" width="2.23" height=".45" style="fill: #f7a623;"/>
  <rect x="9.45" y="120.79" width="2.23" height=".45" style="fill: #f7a623;"/>
  <rect x="9.45" y="126.74" width="2.23" height=".45" style="fill: #f7a623;"/>
  <rect x="9.45" y="132.68" width="2.23" height=".45" style="fill: #f7a623;"/>
  <rect x="9.45" y="138.63" width="2.23" height=".45" style="fill: #f7a623;"/>
  <rect x="9.45" y="144.57" width="2.23" height=".45" style="fill: #f7a623;"/>
  <rect x="9.45" y="150.52" width="2.23" height=".45" style="fill: #f7a623;"/>
  <rect x="9.45" y="156.46" width="2.23" height=".45" style="fill: #f7a623;"/>
  <rect x="9.45" y="162.41" width="2.23" height=".45" style="fill: #f7a623;"/>
  <rect x="9.45" y="168.35" width="2.23" height=".45" style="fill: #f7a623;"/>
  <rect x="9.45" y="174.3" width="2.23" height=".45" style="fill: #f7a623;"/>
  <rect x="9.45" y="180.24" width="2.23" height=".45" style="fill: #f7a623;"/>
  <rect x="9.45" y="186.19" width="2.23" height=".45" style="fill: #f7a623;"/>
  <rect x="9.45" y="192.13" width="2.23" height=".45" style="fill: #f7a623;"/>
  <rect x="9.45" y="198.08" width="2.23" height=".45" style="fill: #f7a623;"/>
  <rect x="9.45" y="204.02" width="2.23" height=".45" style="fill: #f7a623;"/>
  <rect x="9.45" y="209.97" width="2.23" height=".45" style="fill: #f7a623;"/>
  <rect x="9.45" y="215.91" width="2.23" height=".45" style="fill: #f7a623;"/>
  <rect x="9.45" y="221.86" width="2.23" height=".45" style="fill: #f7a623;"/>
  <rect x="9.45" y="227.8" width="2.23" height=".45" style="fill: #f7a623;"/>
  <rect x="9.45" y="233.75" width="2.23" height=".45" style="fill: #f7a623;"/>
  <rect x="9.45" y="239.69" width="2.23" height=".45" style="fill: #f7a623;"/>
  <rect x="9.45" y="245.64" width="2.23" height=".45" style="fill: #f7a623;"/>
</svg>